<?xml version="1.0" encoding="UTF-8" standalone="no"?>
<!-- Created with Inkscape (http://www.inkscape.org/) -->

<svg
   xmlns:dc="http://purl.org/dc/elements/1.1/"
   xmlns:cc="http://creativecommons.org/ns#"
   xmlns:rdf="http://www.w3.org/1999/02/22-rdf-syntax-ns#"
   xmlns:svg="http://www.w3.org/2000/svg"
   xmlns="http://www.w3.org/2000/svg"
   xmlns:sodipodi="http://sodipodi.sourceforge.net/DTD/sodipodi-0.dtd"
   xmlns:inkscape="http://www.inkscape.org/namespaces/inkscape"
   width="744.09448"
   height="1052.3622"
   id="svg2"
   version="1.1"
   inkscape:version="0.48.5 r10040"
   sodipodi:docname="4.3_inch_display_set_hull.svg">
  <defs
     id="defs4" />
  <sodipodi:namedview
     id="base"
     pagecolor="#ffffff"
     bordercolor="#666666"
     borderopacity="1.0"
     inkscape:pageopacity="0.0"
     inkscape:pageshadow="2"
     inkscape:zoom="1.4142136"
     inkscape:cx="407.27745"
     inkscape:cy="494.19172"
     inkscape:document-units="mm"
     inkscape:current-layer="layer2"
     showgrid="false"
     units="mm"
     inkscape:window-width="1920"
     inkscape:window-height="1005"
     inkscape:window-x="-9"
     inkscape:window-y="-9"
     inkscape:window-maximized="1"
     inkscape:object-nodes="true"
     showguides="true"
     inkscape:guide-bbox="true"
     inkscape:snap-midpoints="true" />
  <metadata
     id="metadata7">
    <rdf:RDF>
      <cc:Work
         rdf:about="">
        <dc:format>image/svg+xml</dc:format>
        <dc:type
           rdf:resource="http://purl.org/dc/dcmitype/StillImage" />
        <dc:title></dc:title>
      </cc:Work>
    </rdf:RDF>
  </metadata>
  <g
     inkscape:label="Display"
     inkscape:groupmode="layer"
     id="layer1"
     transform="translate(0,-2.5390623e-6)"
     style="display:none">
    <rect
       style="color:#000000;fill:#000080;fill-opacity:1;fill-rule:nonzero;stroke:none;stroke-width:3.00000024;marker:none;visibility:visible;display:inline;overflow:visible;enable-background:accumulate"
       id="rect2985"
       width="372.04724"
       height="265.74802"
       x="92.314774"
       y="377.74857"
       ry="0" />
    <rect
       style="color:#000000;fill:#000080;fill-opacity:1;fill-rule:nonzero;stroke:none;stroke-width:3.00000024;marker:none;visibility:visible;display:inline;overflow:visible;enable-background:accumulate"
       id="rect2987"
       width="28.346457"
       height="28.346457"
       x="464.362"
       y="427.35471" />
    <rect
       y="572.63031"
       x="464.362"
       height="28.346457"
       width="28.346457"
       id="rect2989"
       style="color:#000000;fill:#000080;fill-opacity:1;fill-rule:nonzero;stroke:none;stroke-width:3.00000024;marker:none;visibility:visible;display:inline;overflow:visible;enable-background:accumulate" />
    <rect
       y="427.35471"
       x="63.968315"
       height="28.346457"
       width="28.346457"
       id="rect2991"
       style="color:#000000;fill:#000080;fill-opacity:1;fill-rule:nonzero;stroke:none;stroke-width:3.00000024;marker:none;visibility:visible;display:inline;overflow:visible;enable-background:accumulate" />
    <rect
       style="color:#000000;fill:#000080;fill-opacity:1;fill-rule:nonzero;stroke:none;stroke-width:3.00000024;marker:none;visibility:visible;display:inline;overflow:visible;enable-background:accumulate"
       id="rect2993"
       width="28.346457"
       height="28.346457"
       x="63.968315"
       y="572.63031" />
    <text
       xml:space="preserve"
       style="font-size:8px;font-style:normal;font-variant:normal;font-weight:normal;font-stretch:normal;line-height:125%;letter-spacing:0px;word-spacing:0px;fill:#000000;fill-opacity:1;stroke:none;font-family:Aleo;-inkscape-font-specification:Aleo"
       x="520"
       y="586.36218"
       id="text2995"
       sodipodi:linespacing="125%"
       transform="translate(0,2.5390623e-6)"><tspan
         sodipodi:role="line"
         id="tspan2997"
         x="520"
         y="586.36218">@4mm height</tspan><tspan
         sodipodi:role="line"
         x="520"
         y="596.36218"
         id="tspan3797">3mm height</tspan></text>
    <text
       xml:space="preserve"
       style="font-size:8px;font-style:normal;font-variant:normal;font-weight:normal;font-stretch:normal;line-height:125%;letter-spacing:0px;word-spacing:0px;fill:#000000;fill-opacity:1;stroke:none;font-family:Aleo;-inkscape-font-specification:Aleo"
       x="380"
       y="694.86218"
       id="text2999"
       sodipodi:linespacing="125%"
       transform="translate(0,2.5390623e-6)"><tspan
         sodipodi:role="line"
         id="tspan3001"
         x="380"
         y="694.86218">@6mm height</tspan><tspan
         sodipodi:role="line"
         x="380"
         y="704.86218"
         id="tspan3795">1.5mm height</tspan></text>
    <rect
       style="color:#000000;fill:#000080;fill-opacity:1;fill-rule:nonzero;stroke:none;stroke-width:3.00000024;marker:none;visibility:visible;display:inline;overflow:visible;enable-background:accumulate"
       id="rect3003"
       width="24.80315"
       height="21.259842"
       x="177.35315"
       y="356.48871" />
    <rect
       y="356.48871"
       x="354.51849"
       height="21.259842"
       width="24.80315"
       id="rect3005"
       style="color:#000000;fill:#000080;fill-opacity:1;fill-rule:nonzero;stroke:none;stroke-width:3.00000024;marker:none;visibility:visible;display:inline;overflow:visible;enable-background:accumulate" />
    <rect
       y="643.49658"
       x="141.92007"
       height="21.259842"
       width="24.80315"
       id="rect3009"
       style="color:#000000;fill:#000080;fill-opacity:1;fill-rule:nonzero;stroke:none;stroke-width:3.00000024;marker:none;visibility:visible;display:inline;overflow:visible;enable-background:accumulate" />
    <rect
       y="643.49658"
       x="382.86496"
       height="21.259842"
       width="42.519684"
       id="rect3011"
       style="color:#000000;fill:#000080;fill-opacity:1;fill-rule:nonzero;stroke:none;stroke-width:3.00000024;marker:none;visibility:visible;display:inline;overflow:visible;enable-background:accumulate" />
    <text
       xml:space="preserve"
       style="font-size:8px;font-style:normal;font-variant:normal;font-weight:normal;font-stretch:normal;line-height:125%;letter-spacing:0px;word-spacing:0px;fill:#000000;fill-opacity:1;stroke:none;font-family:Aleo;-inkscape-font-specification:Aleo"
       x="383.0401"
       y="727.4621"
       id="text3783"
       sodipodi:linespacing="125%"><tspan
         sodipodi:role="line"
         x="383.0401"
         y="727.4621"
         id="tspan3789">16mm total height</tspan></text>
  </g>
  <g
     inkscape:groupmode="layer"
     id="layer2"
     inkscape:label="Zeichnung"
     style="display:inline">
    <path
       style="opacity:0.33000004;color:#000000;fill:#000000;fill-opacity:1;fill-rule:nonzero;stroke:none;stroke-width:3.00000024;marker:none;visibility:visible;display:inline;overflow:visible;enable-background:accumulate"
       d="m 81.6875,299.4375 0,19.3125 10.625,0 0,37.37006 -10.625,0 0,10.62992 21.96875,2e-5 0,-10.625 9.21875,0 0,10.625 12.03125,0 0,-10.625 9.21875,0 0,10.625 12.0625,0 0,-10.625 9.1875,0 0,10.625 12.0625,0 0,-10.625 9.21875,0 0,10.625 12.03125,0 0,-10.625 9.21875,0 0,10.625 12.03125,0 0,-10.625 9.21875,0 0,10.625 12.0625,0 0,-10.625 9.21875,0 0,10.625 12.03125,0 0,-10.625 9.21875,0 0,10.625 12.03125,0 0,-10.625 9.21875,0 0,10.625 12.0625,0 0,-10.625 9.21875,0 0,10.625 12.03125,0 0,-10.625 9.21875,0 0,10.625 12.03125,0 0,-10.625 9.21875,0 0,10.625 12.0625,0 0,-10.625 9.1875,0 0,10.625 12.0625,0 0,-10.625 9.21875,0 0,10.625 12.03125,0 0,-10.625 9.21875,0 0,10.625 12.0625,0 0,-10.625 9.1875,0 0,10.625 12.0625,0 0,-10.625 9.21875,0 0,10.625 21.96875,0 0,-19.3125 -10.625,0 0,-28.6875 10.625,0 0,-19.3125 z m 95.65625,21.25 24.8125,0 0,5.3125 -24.8125,0 z m 177.1875,0 24.78125,0 0,5.3125 -24.78125,0 z"
       id="rect3013"
       inkscape:connector-curvature="0"
       sodipodi:nodetypes="ccccccccccccccccccccccccccccccccccccccccccccccccccccccccccccccccccccccccccccccccccccccccccc" />
    <path
       style="opacity:0.33000004;color:#000000;fill:#000000;fill-opacity:1;fill-rule:nonzero;stroke:none;stroke-width:3.00000024;marker:none;visibility:visible;display:inline;overflow:visible;enable-background:accumulate"
       d="m 493.9375,367.125 0,10.625 -18.59375,0 0,11.34375 10.625,0 0,15.21875 0,0 c 0.97238,-1.0833 3.74121,-1.78125 5.3125,-1.78125 2.93537,0 5.3125,2.37713 5.3125,5.3125 0,2.93537 -2.37713,5.3125 -5.3125,5.3125 2.93537,0 5.3125,2.40838 5.3125,5.34375 0,2.93537 -2.37713,5.3125 -5.3125,5.3125 -1.58712,0 -4.33928,-0.71012 -5.3125,-1.8125 l 0,0 0,18.8125 -10.625,0 0,12.0625 10.625,0 0,9.21875 -10.625,0 0,12.03125 10.625,0 0,9.21875 -10.625,0 0,12.03125 10.625,0 0,9.21875 -10.625,0 0,12.0625 10.625,0 0,9.1875 -10.625,0 0,12.0625 10.625,0 0,9.21875 -10.625,0 0,12.03125 10.625,0 0,9.21875 -10.625,0 0,12.0625 10.625,0 0,9.1875 -10.625,0 0,12.0625 10.625,0 0,9.21875 -10.625,0 0,12.03125 10.625,0 0,9.21875 -10.625,0 0,11.34375 18.59375,0 0,10.625 30.125,0 0,-10.625 18.59375,0 0,-265.75 -18.59375,0 0,-10.625 z m 23.90625,60.21875 10.625,0 0,28.34375 -10.625,0 z m 0,145.28125 10.625,0 0,28.34375 -10.625,0 z"
       id="rect3799"
       inkscape:connector-curvature="0"
       sodipodi:nodetypes="cccccccsscsscccccccccccccccccccccccccccccccccccccccccccccccccccccccccccc" />
    <path
       style="opacity:0.33000004;color:#000000;fill:#000000;fill-opacity:1;fill-rule:nonzero;stroke:none;stroke-width:3.00000024;marker:none;visibility:visible;display:inline;overflow:visible;enable-background:accumulate"
       d="m 14.03125,654.46875 0,19.3125 10.625,0 0,28.6875 -10.625,0 0,19.3125 393.3125,0 0,-19.3125 -10.625,0 0,-28.6875 10.625,0 0,-19.3125 -21.96875,0 0,10.65625 -9.21875,0 0,-10.65625 -12.0625,0 0,10.65625 -9.1875,0 0,-10.65625 -12.0625,0 0,10.65625 -9.21875,0 0,-10.65625 -12.03125,0 0,10.65625 -9.21875,0 0,-10.65625 -12.0625,0 0,10.65625 -9.1875,0 0,-10.65625 -12.0625,0 0,10.65625 -9.21875,0 0,-10.65625 -12.03125,0 0,10.65625 -9.21875,0 0,-10.65625 -12.03125,0 0,10.65625 -9.21875,0 0,-10.65625 -12.0625,0 0,10.65625 -9.21875,0 0,-10.65625 -12.03125,0 0,10.65625 -9.21875,0 0,-10.65625 -12.03125,0 0,10.65625 -9.21875,0 0,-10.65625 -54.5625,0 0,10.65625 -9.21875,0 0,-10.65625 -12.0625,0 0,10.65625 -9.1875,0 0,-10.65625 -12.0625,0 0,10.65625 -9.21875,0 0,-10.65625 -12.03125,0 0,10.65625 -9.21875,0 0,-10.65625 -21.96875,0 z m 113.375,10.625 10.625,0 0,10.625 -10.625,0 0,-10.625 z m 0,24.78125 10.625,0 0,10.625 -10.625,0 0,-10.625 z m -53.15625,5.34375 24.8125,0 0,5.3125 -24.8125,0 0,-5.3125 z m 240.96875,0 42.5,0 0,5.3125 -42.5,0 0,-5.3125 z"
       id="path3826"
       inkscape:connector-curvature="0" />
    <path
       style="opacity:0.33000004;color:#000000;fill:#000000;fill-opacity:1;fill-rule:nonzero;stroke:none;stroke-width:3.00000024;marker:none;visibility:visible;display:inline;overflow:visible;enable-background:accumulate"
       d="M 102.9375 366.75 L 102.9375 377.75 L 92.3125 377.75 L 92.3125 537.1875 L 81.34375 537.1875 L 81.34375 547.8125 L 92.3125 547.8125 L 92.3125 558.46875 L 81.34375 558.46875 L 81.34375 569.09375 L 92.3125 569.09375 L 92.3125 579.71875 L 81.34375 579.71875 L 81.34375 590.34375 L 92.3125 590.34375 L 92.3125 600.96875 L 81.34375 600.96875 L 81.34375 611.59375 L 92.3125 611.59375 L 92.3125 622.25 L 81.34375 622.25 L 81.34375 632.875 L 92.3125 632.875 L 92.3125 643.5 L 102.9375 643.5 L 102.9375 654.46875 L 113.5625 654.46875 L 113.5625 643.5 L 124.21875 643.5 L 124.21875 654.46875 L 134.84375 654.46875 L 134.84375 643.5 L 145.46875 643.5 L 145.46875 654.46875 L 156.09375 654.46875 L 156.09375 643.5 L 166.71875 643.5 L 166.71875 654.46875 L 177.34375 654.46875 L 177.34375 643.5 L 230.5 643.5 L 230.5 654.46875 L 241.125 654.46875 L 241.125 643.5 L 251.75 643.5 L 251.75 654.46875 L 262.40625 654.46875 L 262.40625 643.5 L 273.03125 643.5 L 273.03125 654.46875 L 283.65625 654.46875 L 283.65625 643.5 L 294.28125 643.5 L 294.28125 654.46875 L 304.90625 654.46875 L 304.90625 643.5 L 315.53125 643.5 L 315.53125 654.46875 L 326.1875 654.46875 L 326.1875 643.5 L 336.8125 643.5 L 336.8125 654.46875 L 347.4375 654.46875 L 347.4375 643.5 L 358.0625 643.5 L 358.0625 654.46875 L 368.6875 654.46875 L 368.6875 643.5 L 379.3125 643.5 L 379.3125 654.46875 L 389.9375 654.46875 L 389.9375 643.5 L 400.59375 643.5 L 400.59375 654.46875 L 411.21875 654.46875 L 411.21875 643.5 L 421.84375 643.5 L 421.84375 654.46875 L 432.46875 654.46875 L 432.46875 643.5 L 443.09375 643.5 L 443.09375 654.46875 L 453.71875 654.46875 L 453.71875 643.5 L 464.375 643.5 L 464.375 632.875 L 475.34375 632.875 L 475.34375 622.25 L 464.375 622.25 L 464.375 611.59375 L 475.34375 611.59375 L 475.34375 600.96875 L 464.375 600.96875 L 464.375 590.34375 L 475.34375 590.34375 L 475.34375 579.71875 L 464.375 579.71875 L 464.375 569.09375 L 475.34375 569.09375 L 475.34375 558.46875 L 464.375 558.46875 L 464.375 547.8125 L 475.34375 547.8125 L 475.34375 537.1875 L 464.375 537.1875 L 464.375 526.5625 L 475.34375 526.5625 L 475.34375 515.9375 L 464.375 515.9375 L 464.375 505.3125 L 475.34375 505.3125 L 475.34375 494.6875 L 464.375 494.6875 L 464.375 484.0625 L 475.34375 484.0625 L 475.34375 473.40625 L 464.375 473.40625 L 464.375 462.78125 L 475.34375 462.78125 L 475.34375 452.15625 L 464.375 452.15625 L 464.375 441.53125 L 475.34375 441.53125 L 475.34375 388.375 L 464.375 388.375 L 464.375 377.75 L 453.71875 377.75 L 453.71875 366.75 L 443.09375 366.75 L 443.09375 377.75 L 432.46875 377.75 L 432.46875 366.75 L 421.84375 366.75 L 421.84375 377.75 L 411.21875 377.75 L 411.21875 366.75 L 400.59375 366.75 L 400.59375 377.75 L 389.9375 377.75 L 389.9375 366.75 L 379.3125 366.75 L 379.3125 377.75 L 368.6875 377.75 L 368.6875 366.75 L 358.0625 366.75 L 358.0625 377.75 L 347.4375 377.75 L 347.4375 366.75 L 336.8125 366.75 L 336.8125 377.75 L 326.1875 377.75 L 326.1875 366.75 L 315.53125 366.75 L 315.53125 377.75 L 304.90625 377.75 L 304.90625 366.75 L 294.28125 366.75 L 294.28125 377.75 L 283.65625 377.75 L 283.65625 366.75 L 273.03125 366.75 L 273.03125 377.75 L 262.40625 377.75 L 262.40625 366.75 L 251.75 366.75 L 251.75 377.75 L 241.125 377.75 L 241.125 366.75 L 230.5 366.75 L 230.5 377.75 L 219.875 377.75 L 219.875 366.75 L 209.25 366.75 L 209.25 377.75 L 198.625 377.75 L 198.625 366.75 L 187.96875 366.75 L 187.96875 377.75 L 177.34375 377.75 L 177.34375 366.75 L 166.71875 366.75 L 166.71875 377.75 L 156.09375 377.75 L 156.09375 366.75 L 145.46875 366.75 L 145.46875 377.75 L 134.84375 377.75 L 134.84375 366.75 L 124.21875 366.75 L 124.21875 377.75 L 113.5625 377.75 L 113.5625 366.75 L 102.9375 366.75 z M 262.40625 388.375 L 273.03125 388.375 L 273.03125 399 L 262.40625 399 L 262.40625 388.375 z M 283.65625 388.375 L 294.28125 388.375 L 294.28125 399 L 283.65625 399 L 283.65625 388.375 z M 262.40625 409.625 L 273.03125 409.625 L 273.03125 420.28125 L 262.40625 420.28125 L 262.40625 409.625 z M 283.65625 409.625 L 294.28125 409.625 L 294.28125 420.28125 L 283.65625 420.28125 L 283.65625 409.625 z M 262.40625 430.90625 L 273.03125 430.90625 L 273.03125 441.53125 L 262.40625 441.53125 L 262.40625 430.90625 z M 283.65625 430.90625 L 294.28125 430.90625 L 294.28125 441.53125 L 283.65625 441.53125 L 283.65625 430.90625 z M 262.40625 452.15625 L 273.03125 452.15625 L 273.03125 462.78125 L 262.40625 462.78125 L 262.40625 452.15625 z M 283.65625 452.15625 L 294.28125 452.15625 L 294.28125 462.78125 L 283.65625 462.78125 L 283.65625 452.15625 z M 262.40625 473.40625 L 273.03125 473.40625 L 273.03125 484.0625 L 262.40625 484.0625 L 262.40625 473.40625 z M 283.65625 473.40625 L 294.28125 473.40625 L 294.28125 484.0625 L 283.65625 484.0625 L 283.65625 473.40625 z M 262.40625 494.6875 L 273.03125 494.6875 L 273.03125 505.3125 L 262.40625 505.3125 L 262.40625 494.6875 z M 283.65625 494.6875 L 294.28125 494.6875 L 294.28125 505.3125 L 283.65625 505.3125 L 283.65625 494.6875 z M 262.40625 515.9375 L 273.03125 515.9375 L 273.03125 526.5625 L 262.40625 526.5625 L 262.40625 515.9375 z M 283.65625 515.9375 L 294.28125 515.9375 L 294.28125 526.5625 L 283.65625 526.5625 L 283.65625 515.9375 z M 262.40625 537.1875 L 273.03125 537.1875 L 273.03125 547.84375 L 262.40625 547.84375 L 262.40625 537.1875 z M 283.65625 537.1875 L 294.28125 537.1875 L 294.28125 547.84375 L 283.65625 547.84375 L 283.65625 537.1875 z M 262.40625 558.46875 L 273.03125 558.46875 L 273.03125 569.09375 L 262.40625 569.09375 L 262.40625 558.46875 z M 283.65625 558.46875 L 294.28125 558.46875 L 294.28125 569.09375 L 283.65625 569.09375 L 283.65625 558.46875 z M 262.40625 579.71875 L 273.03125 579.71875 L 273.03125 590.34375 L 262.40625 590.34375 L 262.40625 579.71875 z M 283.65625 579.71875 L 294.28125 579.71875 L 294.28125 590.34375 L 283.65625 590.34375 L 283.65625 579.71875 z M 195.0625 590.34375 L 205.6875 590.34375 L 205.6875 600.96875 L 195.0625 600.96875 L 195.0625 590.34375 z M 262.40625 600.96875 L 273.03125 600.96875 L 273.03125 611.59375 L 262.40625 611.59375 L 262.40625 600.96875 z M 283.65625 600.96875 L 294.28125 600.96875 L 294.28125 611.59375 L 283.65625 611.59375 L 283.65625 600.96875 z M 195.0625 622.25 L 205.6875 622.25 L 205.6875 632.875 L 195.0625 632.875 L 195.0625 622.25 z M 262.40625 622.25 L 273.03125 622.25 L 273.03125 632.875 L 262.40625 632.875 L 262.40625 622.25 z M 283.65625 622.25 L 294.28125 622.25 L 294.28125 632.875 L 283.65625 632.875 L 283.65625 622.25 z "
       id="rect3828" />
    <g
       id="g4360">
      <path
         sodipodi:nodetypes="ccccccccccccccccccccccccccccccccccccccccccc"
         inkscape:connector-curvature="0"
         id="path3822"
         d="m 32.625,367.125 0,10.625 -18.59375,0 0,265.75 18.59375,0 0,10.625 30.125,0 0,-10.625 18.59375,0 0,-11.34375 -10.65625,0 0,-9.21875 10.65625,0 0,-12.03125 -10.65625,0 0,-9.21875 10.65625,0 0,-12.0625 -10.65625,0 0,-9.1875 10.65625,0 0,-12.0625 -10.65625,0 0,-9.21875 10.65625,0 0,-12.03125 -10.65625,0 0,-9.21875 10.65625,0 c 0,-61.63616 -4.9e-5,-99.82584 -4.9e-5,-160.15625 l -10.629921,0 0,-10.625 z m -4.40625,60.21875 10.625,0 0,28.34375 -10.625,0 z m 0,145.28125 10.625,0 0,28.34375 -10.625,0 z"
         style="opacity:0.33000004;color:#000000;fill:#000000;fill-opacity:1;fill-rule:nonzero;stroke:none;stroke-width:3.00000024;marker:none;visibility:visible;display:inline;overflow:visible;enable-background:accumulate" />
      <path
         inkscape:connector-curvature="0"
         id="rect4327"
         d="m 52.96875,378.46875 0,14.875 -5.3125,2.84375 5.3125,2.84375 0,36.84375 -5.3125,2.84375 5.3125,2.84375 0,29.75 -5.3125,2.84375 5.3125,2.84375 0,36.8125 -5.3125,2.84375 5.3125,2.84375 0,64.5 3.5625,0 0,-67.34375 3.53125,0 0,7.09375 10.625,0 0,-56.6875 -10.625,0 0,7.09375 -3.53125,0 0,-35.4375 3.53125,0 0,7.0625 10.625,0 0,-56.6875 -10.625,0 0,7.09375 -3.53125,0 0,-17.71875 -3.5625,0 z"
         style="opacity:0.33000004;color:#000000;fill:#000000;fill-opacity:1;fill-rule:nonzero;stroke:none;stroke-width:3.00000024;marker:none;visibility:visible;display:inline;overflow:visible;enable-background:accumulate" />
    </g>
    <path
       style="opacity:0.33000004;color:#000000;fill:#000000;fill-opacity:1;fill-rule:nonzero;stroke:none;stroke-width:3.00000024;marker:none;visibility:visible;display:inline;overflow:visible;enable-background:accumulate"
       d="m 545.53125,663.15625 -10.625,0 0,-5.3125 -116.9375,0 0,5.3125 -10.625,0 0,10.625 10.625,0 0,10.625 -10.625,0 0,10.65625 10.625,0 0,5.3125 116.9375,0 0,-5.3125 10.625,0 0,-10.65625 -10.625,0 0,-10.625 10.625,0 0,-10.625 z"
       id="rect4548"
       inkscape:connector-curvature="0" />
    <path
       style="opacity:0.33000004;color:#000000;fill:#000000;fill-opacity:1;fill-rule:nonzero;stroke:none;stroke-width:3.00000024;marker:none;visibility:visible;display:inline;overflow:visible;enable-background:accumulate"
       d="m 521.03125,324.21875 -10.625,0 0,-10.625 0,-10.625 -10.625,0 0,10.625 -14.15625,0 0,-10.625 -10.625,0 0,10.625 0,53.15625 7.0625,0 0,-7.09375 3.5625,0 0,7.09375 24.78125,0 10.625,0 0,-10.625 -10.625,0 0,-21.28125 10.625,0 0,-10.625 z"
       id="rect4561"
       inkscape:connector-curvature="0" />
    <path
       style="opacity:0.33000004;color:#000000;fill:#000000;fill-opacity:1;fill-rule:nonzero;stroke:none;stroke-width:3.00000024;marker:none;visibility:visible;display:inline;overflow:visible;enable-background:accumulate"
       d="m 35.625,367.125 17.71875,0 0,-10.625 3.53125,0 0,10.625 24.8125,0 0,-10.625 -10.625,0 0,-17.71875 10.625,0 0,-10.625 -35.4375,0 0,7.09375 -3.53125,0 0,-7.09375 -7.09375,0 0,38.96875 z"
       id="rect4609"
       inkscape:connector-curvature="0" />
    <path
       style="opacity:0.33000004;color:#000000;fill:#000000;fill-opacity:1;fill-rule:nonzero;stroke:none;stroke-width:3.00000024;marker:none;visibility:visible;display:inline;overflow:visible;enable-background:accumulate"
       d="M 145.4375 413.15625 L 145.4375 423.8125 L 156.09375 423.8125 L 156.09375 413.15625 L 145.4375 413.15625 z M 173.8125 413.15625 L 173.8125 423.8125 L 184.4375 423.8125 L 184.4375 413.15625 L 173.8125 413.15625 z "
       id="rect4625" />
    <path
       id="path4630"
       d="m 145.4375,561.96341 0,10.65625 10.65625,0 0,-10.65625 -10.65625,0 z m 28.375,0 0,10.65625 10.625,0 0,-10.65625 -10.625,0 z"
       style="opacity:0.33000004;color:#000000;fill:#000000;fill-opacity:1;fill-rule:nonzero;stroke:none;stroke-width:3.00000024;marker:none;visibility:visible;display:inline;overflow:visible;enable-background:accumulate"
       inkscape:connector-curvature="0" />
    <path
       inkscape:connector-curvature="0"
       id="path4632"
       d="m 35.625,328.15625 17.71875,0 0,-10.625 3.53125,0 0,10.625 24.8125,0 0,-10.625 -10.625,0 0,-17.71875 10.625,0 0,-10.625 -35.4375,0 0,7.09375 -3.53125,0 0,-7.09375 -7.09375,0 0,38.96875 z"
       style="opacity:0.33000004;color:#000000;fill:#000000;fill-opacity:1;fill-rule:nonzero;stroke:none;stroke-width:3.00000024;marker:none;visibility:visible;display:inline;overflow:visible;enable-background:accumulate" />
  </g>
</svg>
