<?xml version="1.0" encoding="UTF-8" standalone="no"?>
<!-- Created with Inkscape (http://www.inkscape.org/) -->

<svg
   xmlns:dc="http://purl.org/dc/elements/1.1/"
   xmlns:cc="http://creativecommons.org/ns#"
   xmlns:rdf="http://www.w3.org/1999/02/22-rdf-syntax-ns#"
   xmlns:svg="http://www.w3.org/2000/svg"
   xmlns="http://www.w3.org/2000/svg"
   xmlns:sodipodi="http://sodipodi.sourceforge.net/DTD/sodipodi-0.dtd"
   xmlns:inkscape="http://www.inkscape.org/namespaces/inkscape"
   width="744.09448"
   height="1052.3622"
   id="svg2"
   version="1.1"
   inkscape:version="0.48.4 r9939"
   sodipodi:docname="4.3_inch_display_set_hull v2.svg">
  <defs
     id="defs4" />
  <sodipodi:namedview
     id="base"
     pagecolor="#ffffff"
     bordercolor="#666666"
     borderopacity="1.0"
     inkscape:pageopacity="0.0"
     inkscape:pageshadow="2"
     inkscape:zoom="5.656854"
     inkscape:cx="130.5635"
     inkscape:cy="694.92553"
     inkscape:document-units="mm"
     inkscape:current-layer="layer2"
     showgrid="false"
     units="mm"
     inkscape:window-width="1600"
     inkscape:window-height="1138"
     inkscape:window-x="-8"
     inkscape:window-y="-8"
     inkscape:window-maximized="1"
     inkscape:object-nodes="true"
     showguides="true"
     inkscape:guide-bbox="true"
     inkscape:snap-midpoints="true" />
  <metadata
     id="metadata7">
    <rdf:RDF>
      <cc:Work
         rdf:about="">
        <dc:format>image/svg+xml</dc:format>
        <dc:type
           rdf:resource="http://purl.org/dc/dcmitype/StillImage" />
        <dc:title></dc:title>
      </cc:Work>
    </rdf:RDF>
  </metadata>
  <g
     inkscape:label="Display"
     inkscape:groupmode="layer"
     id="layer1"
     transform="translate(0,-2.5390623e-6)"
     style="display:none">
    <rect
       style="color:#000000;fill:#000080;fill-opacity:1;fill-rule:nonzero;stroke:none;stroke-width:3.00000024;marker:none;visibility:visible;display:inline;overflow:visible;enable-background:accumulate"
       id="rect2985"
       width="372.04724"
       height="265.74802"
       x="92.314774"
       y="377.74857"
       ry="0" />
    <rect
       style="color:#000000;fill:#000080;fill-opacity:1;fill-rule:nonzero;stroke:none;stroke-width:3.00000024;marker:none;visibility:visible;display:inline;overflow:visible;enable-background:accumulate"
       id="rect2987"
       width="28.346457"
       height="28.346457"
       x="464.362"
       y="427.35471" />
    <rect
       y="572.63031"
       x="464.362"
       height="28.346457"
       width="28.346457"
       id="rect2989"
       style="color:#000000;fill:#000080;fill-opacity:1;fill-rule:nonzero;stroke:none;stroke-width:3.00000024;marker:none;visibility:visible;display:inline;overflow:visible;enable-background:accumulate" />
    <rect
       y="427.35471"
       x="63.968315"
       height="28.346457"
       width="28.346457"
       id="rect2991"
       style="color:#000000;fill:#000080;fill-opacity:1;fill-rule:nonzero;stroke:none;stroke-width:3.00000024;marker:none;visibility:visible;display:inline;overflow:visible;enable-background:accumulate" />
    <rect
       style="color:#000000;fill:#000080;fill-opacity:1;fill-rule:nonzero;stroke:none;stroke-width:3.00000024;marker:none;visibility:visible;display:inline;overflow:visible;enable-background:accumulate"
       id="rect2993"
       width="28.346457"
       height="28.346457"
       x="63.968315"
       y="572.63031" />
    <text
       xml:space="preserve"
       style="font-size:8px;font-style:normal;font-variant:normal;font-weight:normal;font-stretch:normal;line-height:125%;letter-spacing:0px;word-spacing:0px;fill:#000000;fill-opacity:1;stroke:none;font-family:Aleo;-inkscape-font-specification:Aleo"
       x="520"
       y="586.36218"
       id="text2995"
       sodipodi:linespacing="125%"
       transform="translate(0,2.5390623e-6)"><tspan
         sodipodi:role="line"
         id="tspan2997"
         x="520"
         y="586.36218">@4mm height</tspan><tspan
         sodipodi:role="line"
         x="520"
         y="596.36218"
         id="tspan3797">3mm height</tspan></text>
    <text
       xml:space="preserve"
       style="font-size:8px;font-style:normal;font-variant:normal;font-weight:normal;font-stretch:normal;line-height:125%;letter-spacing:0px;word-spacing:0px;fill:#000000;fill-opacity:1;stroke:none;font-family:Aleo;-inkscape-font-specification:Aleo"
       x="380"
       y="694.86218"
       id="text2999"
       sodipodi:linespacing="125%"
       transform="translate(0,2.5390623e-6)"><tspan
         sodipodi:role="line"
         id="tspan3001"
         x="380"
         y="694.86218">@6mm height</tspan><tspan
         sodipodi:role="line"
         x="380"
         y="704.86218"
         id="tspan3795">1.5mm height</tspan></text>
    <rect
       style="color:#000000;fill:#000080;fill-opacity:1;fill-rule:nonzero;stroke:none;stroke-width:3.00000024;marker:none;visibility:visible;display:inline;overflow:visible;enable-background:accumulate"
       id="rect3003"
       width="24.80315"
       height="21.259842"
       x="177.35315"
       y="356.48871" />
    <rect
       y="356.48871"
       x="354.51849"
       height="21.259842"
       width="24.80315"
       id="rect3005"
       style="color:#000000;fill:#000080;fill-opacity:1;fill-rule:nonzero;stroke:none;stroke-width:3.00000024;marker:none;visibility:visible;display:inline;overflow:visible;enable-background:accumulate" />
    <rect
       y="643.49658"
       x="141.92007"
       height="21.259842"
       width="24.80315"
       id="rect3009"
       style="color:#000000;fill:#000080;fill-opacity:1;fill-rule:nonzero;stroke:none;stroke-width:3.00000024;marker:none;visibility:visible;display:inline;overflow:visible;enable-background:accumulate" />
    <rect
       y="643.49658"
       x="382.86496"
       height="21.259842"
       width="42.519684"
       id="rect3011"
       style="color:#000000;fill:#000080;fill-opacity:1;fill-rule:nonzero;stroke:none;stroke-width:3.00000024;marker:none;visibility:visible;display:inline;overflow:visible;enable-background:accumulate" />
    <text
       xml:space="preserve"
       style="font-size:8px;font-style:normal;font-variant:normal;font-weight:normal;font-stretch:normal;line-height:125%;letter-spacing:0px;word-spacing:0px;fill:#000000;fill-opacity:1;stroke:none;font-family:Aleo;-inkscape-font-specification:Aleo"
       x="383.0401"
       y="727.4621"
       id="text3783"
       sodipodi:linespacing="125%"><tspan
         sodipodi:role="line"
         x="383.0401"
         y="727.4621"
         id="tspan3789">16mm total height</tspan></text>
  </g>
  <g
     inkscape:groupmode="layer"
     id="layer2"
     inkscape:label="Zeichnung"
     style="display:inline">
    <path
       style="opacity:0.33000004;color:#000000;fill:#000000;fill-opacity:1;fill-rule:nonzero;stroke:none;stroke-width:3.00000024;marker:none;visibility:visible;display:inline;overflow:visible;enable-background:accumulate"
       d="m 503.02569,367.125 0,10.625 -25.68194,0 0,11.34375 10.625,0 0,15.21875 c 0.97238,-1.0833 3.74121,-1.78125 5.3125,-1.78125 2.93537,0 5.3125,2.37713 5.3125,5.3125 0,2.93537 -2.37713,5.3125 -5.3125,5.3125 2.93537,0 5.3125,2.40838 5.3125,5.34375 0,2.93537 -2.37713,5.3125 -5.3125,5.3125 -1.58712,0 -4.33928,-0.71012 -5.3125,-1.8125 l 0,18.8125 -10.625,0 0,12.0625 10.625,0 0,9.21875 -10.625,0 0,12.03125 10.625,0 0,9.21875 -10.625,0 0,12.03125 10.625,0 0,9.21875 -10.625,0 0,12.0625 10.625,0 0,9.1875 -10.625,0 0,12.0625 10.625,0 0,9.21875 -10.625,0 0,12.03125 10.625,0 0,9.21875 -10.625,0 0,12.0625 10.625,0 0,9.1875 -10.625,0 0,12.0625 10.625,0 0,9.21875 -10.625,0 0,12.03125 10.625,0 0,9.21875 -10.625,0 0,14.875 18.59375,0 0,10.625 9.75,0 0,-10.625 10.625,0 0,10.625 9.75,0 10.625,0 0,-10.625 7.96875,0 0,-269.28125 -11.50556,0 0,-10.625 z m 16.81806,60.21875 10.625,0 0,28.34375 -10.625,0 z m 0,148.83578 10.625,0 0,28.34375 -10.625,0 z"
       id="rect3799"
       inkscape:connector-curvature="0"
       sodipodi:nodetypes="ccccccsscsscccccccccccccccccccccccccccccccccccccccccccccccccccccccccccccccc" />
    <path
       style="opacity:0.33000004;color:#000000;fill:#000000;fill-opacity:1;fill-rule:nonzero;stroke:none;stroke-width:3.00000024;marker:none;visibility:visible;display:inline;overflow:visible;enable-background:accumulate"
       d="m 14.03125,660.46875 0,19.3125 10.625,0 0,28.6875 -10.625,0 0,19.3125 395.09375,0 0,-8.6875 -10.625,0 0,-10.625 0,-9.03125 10.625,0 0,-10.625 -10.625,0 0,-9.03125 10.625,0 0,-19.3125 -23.75,0 0,10.65625 -9.21875,0 0,-10.65625 -12.0625,0 0,10.65625 -9.1875,0 0,-10.65625 -12.0625,0 0,10.65625 -9.21875,0 0,-10.65625 -12.03125,0 0,10.65625 -9.21875,0 0,-10.65625 -12.0625,0 0,10.65625 -9.1875,0 0,-10.65625 -12.0625,0 0,10.65625 -9.21875,0 0,-10.65625 -12.03125,0 0,10.65625 -9.21875,0 0,-10.65625 -12.03125,0 0,10.65625 -9.21875,0 0,-10.65625 -12.0625,0 0,10.65625 -9.21875,0 0,-10.65625 -12.03125,0 0,10.65625 -9.21875,0 0,-10.65625 -12.03125,0 0,10.65625 -9.21875,0 0,-10.65625 -54.5625,0 0,10.65625 -9.21875,0 0,-10.65625 -12.0625,0 0,10.65625 -9.1875,0 0,-10.65625 -12.0625,0 0,10.65625 -9.21875,0 0,-10.65625 -12.03125,0 0,10.65625 -9.21875,0 0,-10.65625 z m 102.74444,10.625 10.625,0 0,10.625 -10.625,0 z m 0,24.78125 10.625,0 0,10.625 -10.625,0 z m -44.294146,5.34375 24.8125,0 0,5.3125 -24.8125,0 z m 239.193256,0 42.5,0 0,5.3125 -42.5,0 z"
       id="path3826"
       inkscape:connector-curvature="0"
       sodipodi:nodetypes="cccccccccccccccccccccccccccccccccccccccccccccccccccccccccccccccccccccccccccccccccccccccccccccccccc" />
    <g
       id="g4360">
      <g
         id="g3024">
        <path
           style="opacity:0.33000004;color:#000000;fill:#000000;fill-opacity:1;fill-rule:nonzero;stroke:none;stroke-width:3.00000024;marker:none;visibility:visible;display:inline;overflow:visible;enable-background:accumulate"
           d="m 32.625,367.125 0,10.625 -18.59375,0 0,269.2922 18.59375,0 0,10.625 30.125,0 0,-10.625 18.59375,0 0,-14.88595 -10.65625,0 0,-9.21875 10.65625,0 0,-12.03125 -10.65625,0 0,-9.21875 10.65625,0 0,-12.0625 -10.65625,0 0,-9.1875 10.65625,0 0,-12.0625 -10.65625,0 0,-9.21875 10.65625,0 0,-12.03125 -10.65625,0 0,-9.21875 10.65625,0 c 0,-61.63616 -4.9e-5,-99.82584 -4.9e-5,-160.15625 l -10.629921,0 0,-10.625 z m -4.40625,61.297 10.625,0 0,28.34375 -10.625,0 z m 0,147.74695 10.625,0 0,28.34375 -10.625,0 z"
           id="path3822"
           inkscape:connector-curvature="0"
           sodipodi:nodetypes="ccccccccccccccccccccccccccccccccccccccccccc" />
        <path
           style="opacity:0.33000004;color:#000000;fill:#000000;fill-opacity:1;fill-rule:nonzero;stroke:none;stroke-width:3.00000024;marker:none;visibility:visible;display:inline;overflow:visible;enable-background:accumulate"
           d="m 52.96875,378.46875 c 0,68.36228 0,126.77466 0,205.53125 l 3.5625,0 0,-67.34375 3.53125,0 0,7.09375 10.625,0 0,-56.6875 -10.625,0 0,7.09375 -3.53125,0 0,-35.4375 3.53125,0 0,7.0625 10.625,0 0,-56.6875 -10.625,0 0,7.09375 -3.53125,0 0,-17.71875 z"
           id="rect4327"
           inkscape:connector-curvature="0"
           sodipodi:nodetypes="ccccccccccccccccccccc" />
      </g>
    </g>
    <path
       style="opacity:0.33000004;color:#000000;fill:#000000;fill-opacity:1;fill-rule:nonzero;stroke:none;stroke-width:3.00000024;marker:none;visibility:visible;display:inline;overflow:visible;enable-background:accumulate"
       d="m 547.53125,665.15625 -10.625,0 0,-5.3125 -116.9375,0 0,5.3125 -10.625,0 0,10.625 10.625,0 0,10.625 -10.625,0 0,10.65625 10.625,0 0,5.3125 116.9375,0 0,-5.3125 10.625,0 0,-10.65625 -10.625,0 0,-10.625 10.625,0 0,-10.625 z"
       id="rect4548"
       inkscape:connector-curvature="0" />
    <path
       style="opacity:0.33000004;color:#000000;fill:#000000;fill-opacity:1;fill-rule:nonzero;stroke:none;stroke-width:3.00000024;marker:none;visibility:visible;display:inline;overflow:visible;enable-background:accumulate"
       d="m 525.15621,324.59375 -10.625,0 c 0,-5.83333 0,-12.41667 0,-21.25 l -10.625,0 0,10.625 -14.15625,0 0,-10.625 -10.625,0 0,10.625 0,53.15625 8.83271,0 0,-7.09375 3.5625,0 0,7.09375 23.01104,0 10.625,0 0,-10.625 -10.625,0 0,-21.28125 10.625,0 z"
       id="rect4561"
       inkscape:connector-curvature="0"
       sodipodi:nodetypes="ccccccccccccccccccccc" />
    <path
       style="opacity:0.33000004;color:#000000;fill:#000000;fill-opacity:1;fill-rule:nonzero;stroke:none;stroke-width:3.00000024;marker:none;visibility:visible;display:inline;overflow:visible;enable-background:accumulate"
       d="m 35.625,367.125 17.71875,0 0,-14.16939 3.53125,0 0,14.16939 24.8125,0 0,-10.625 -10.625,0 0,-17.71875 10.625,0 0,-10.625 -33.667544,0 0,7.09375 -3.53125,0 0,-7.09375 -8.863706,0 z"
       id="rect4609"
       inkscape:connector-curvature="0"
       sodipodi:nodetypes="ccccccccccccccccc" />
    <g
       id="g3028">
      <path
         sodipodi:nodetypes="ccccccccccccccccccccccccccccccccccccccccccccccccccccccccccccccccccccccccccccccccccccccccccccccccccccccccccccccccccccccccccccccccccccccccccccccccccccccccccccccccccccccccccccccccccccccccccccccccccccccccccccccccccccccccccccccccccccccccccccccccccccccccccccccccccccccccccccccccccccccccccccccccccccccccccccccccccccccccccccccccccc"
         inkscape:connector-curvature="0"
         id="rect3828"
         d="m 102.9375,366.75 0,11 -10.625,0 0,159.4375 -10.96875,0 0,10.625 10.96875,0 0,10.65625 -10.96875,0 0,10.625 10.96875,0 0,10.625 -10.96875,0 0,10.625 10.96875,0 0,10.625 -10.96875,0 0,10.625 10.96875,0 0,10.65625 -10.96875,0 0,10.625 10.96875,0 0,14.16895 10.625,0 0,10.96875 10.625,0 0,-10.96875 10.65625,0 0,10.96875 10.625,0 0,-10.96875 10.625,0 0,10.96875 10.625,0 0,-10.96875 10.625,0 0,10.96875 10.625,0 0,-10.96875 53.15625,0 0,10.96875 10.625,0 0,-10.96875 10.625,0 0,10.96875 10.65625,0 0,-10.96875 10.625,0 0,10.96875 10.625,0 0,-10.96875 10.625,0 0,10.96875 10.625,0 0,-10.96875 10.625,0 0,10.96875 10.65625,0 0,-10.96875 10.625,0 0,10.96875 10.625,0 0,-10.96875 10.625,0 0,10.96875 10.625,0 0,-10.96875 10.625,0 0,10.96875 10.625,0 0,-10.96875 10.65625,0 0,10.96875 10.625,0 0,-10.96875 10.625,0 0,10.96875 10.625,0 0,-10.96875 10.625,0 0,10.96875 10.625,0 0,-10.96875 12.42876,0 0,-14.16895 10.96875,0 0,-10.625 -10.96875,0 0,-10.65625 10.96875,0 0,-10.625 -10.96875,0 0,-10.625 10.96875,0 0,-10.625 -10.96875,0 0,-10.625 10.96875,0 0,-10.625 -10.96875,0 0,-10.65625 10.96875,0 0,-10.625 -10.96875,0 0,-10.625 10.96875,0 0,-10.625 -10.96875,0 0,-10.625 10.96875,0 0,-10.625 -10.96875,0 0,-10.625 10.96875,0 0,-10.65625 -10.96875,0 0,-10.625 10.96875,0 0,-10.625 -10.96875,0 0,-10.625 10.96875,0 0,-53.15625 -10.96875,0 0,-10.625 -12.42876,0 0,-11 -10.625,0 0,11 -10.625,0 0,-11 -10.625,0 0,11 -10.625,0 0,-11 -10.625,0 0,11 -10.65625,0 0,-11 -10.625,0 0,11 -10.625,0 0,-11 -10.625,0 0,11 -10.625,0 0,-11 -10.625,0 0,11 -10.625,0 0,-11 -10.65625,0 0,11 -10.625,0 0,-11 -10.625,0 0,11 -10.625,0 0,-11 -10.625,0 0,11 -10.625,0 0,-11 -10.65625,0 0,11 -10.625,0 0,-11 -10.625,0 0,11 -10.625,0 0,-11 -10.625,0 0,11 -10.625,0 0,-11 -10.65625,0 0,11 -10.625,0 0,-11 -10.625,0 0,11 -10.625,0 0,-11 -10.625,0 0,11 -10.625,0 0,-11 -10.625,0 0,11 -10.65625,0 0,-11 z m 159.46875,21.625 10.625,0 0,10.625 -10.625,0 z m 21.25,0 10.625,0 0,10.625 -10.625,0 z m -21.25,21.25 10.625,0 0,10.65625 -10.625,0 z m 21.25,0 10.625,0 0,10.65625 -10.625,0 z m -21.25,21.28125 10.625,0 0,10.625 -10.625,0 z m 21.25,0 10.625,0 0,10.625 -10.625,0 z m -21.25,21.25 10.625,0 0,10.625 -10.625,0 z m 21.25,0 10.625,0 0,10.625 -10.625,0 z m -21.25,21.25 10.625,0 0,10.65625 -10.625,0 z m 21.25,0 10.625,0 0,10.65625 -10.625,0 z m -21.25,21.28125 10.625,0 0,10.625 -10.625,0 z m 21.25,0 10.625,0 0,10.625 -10.625,0 z m -21.25,21.25 10.625,0 0,10.625 -10.625,0 z m 21.25,0 10.625,0 0,10.625 -10.625,0 z m -21.25,21.25 10.625,0 0,10.65625 -10.625,0 z m 21.25,0 10.625,0 0,10.65625 -10.625,0 z m -21.25,21.28125 10.625,0 0,10.625 -10.625,0 z m 21.25,0 10.625,0 0,10.625 -10.625,0 z m -21.25,21.25 10.625,0 0,10.625 -10.625,0 z m 21.25,0 10.625,0 0,10.625 -10.625,0 z m -99.22466,14.16915 10.625,0 0,10.625 -10.625,0 z m 77.97466,7.08085 10.625,0 0,10.625 -10.625,0 z m 21.25,0 10.625,0 0,10.625 -10.625,0 z m -99.22466,24.8254 10.625,0 0,10.625 -10.625,0 z m 77.97466,-3.54415 10.625,0 0,10.625 -10.625,0 z m 21.25,0 10.625,0 0,10.625 -10.625,0 z"
         style="opacity:0.33000004;color:#000000;fill:#000000;fill-opacity:1;fill-rule:nonzero;stroke:none;stroke-width:3.00000024;marker:none;visibility:visible;display:inline;overflow:visible;enable-background:accumulate" />
      <path
         id="rect4625"
         d="m 148.98189,413.15625 0,10.65625 10.65625,0 0,-10.65625 -10.65625,0 z m 28.375,0 0,10.65625 10.625,0 0,-10.65625 -10.625,0 z"
         style="opacity:0.33000004;color:#000000;fill:#000000;fill-opacity:1;fill-rule:nonzero;stroke:none;stroke-width:3.00000024;marker:none;visibility:visible;display:inline;overflow:visible;enable-background:accumulate"
         inkscape:connector-curvature="0" />
      <path
         inkscape:connector-curvature="0"
         style="opacity:0.33000004;color:#000000;fill:#000000;fill-opacity:1;fill-rule:nonzero;stroke:none;stroke-width:3.00000024;marker:none;visibility:visible;display:inline;overflow:visible;enable-background:accumulate"
         d="m 148.98189,561.96341 0,10.65625 10.65625,0 0,-10.65625 -10.65625,0 z m 28.375,0 0,10.65625 10.625,0 0,-10.65625 -10.625,0 z"
         id="path4630" />
    </g>
    <path
       inkscape:connector-curvature="0"
       id="path4632"
       d="m 35.625,328.15625 17.71875,0 0,-14.16939 3.53125,0 0,14.16939 24.8125,0 0,-10.625 -10.625,0 0,-17.71875 10.625,0 0,-10.625 -33.667544,0 0,7.09375 -3.53125,0 0,-7.09375 -8.863706,0 z"
       style="opacity:0.33000004;color:#000000;fill:#000000;fill-opacity:1;fill-rule:nonzero;stroke:none;stroke-width:3.00000024;marker:none;visibility:visible;display:inline;overflow:visible;enable-background:accumulate"
       sodipodi:nodetypes="ccccccccccccccccc" />
    <g
       id="g3019">
      <path
         sodipodi:nodetypes="ccccccccccccccccccccccccccccccccccccccccccccccccccccccccccccccccccccccccccccccccccccccccccc"
         inkscape:connector-curvature="0"
         id="rect3013"
         d="m 81.6875,299.4375 0,19.3125 10.625,0 0,37.37006 -10.625,0 0,10.62992 21.96875,2e-5 0,-10.625 9.21875,0 0,10.625 12.03125,0 0,-10.625 9.21875,0 0,10.625 12.0625,0 0,-10.625 9.1875,0 0,10.625 12.0625,0 0,-10.625 9.21875,0 0,10.625 12.03125,0 0,-10.625 9.21875,0 0,10.625 12.03125,0 0,-10.625 9.21875,0 0,10.625 12.0625,0 0,-10.625 9.21875,0 0,10.625 12.03125,0 0,-10.625 9.21875,0 0,10.625 12.03125,0 0,-10.625 9.21875,0 0,10.625 12.0625,0 0,-10.625 9.21875,0 0,10.625 12.03125,0 0,-10.625 9.21875,0 0,10.625 12.03125,0 0,-10.625 9.21875,0 0,10.625 12.0625,0 0,-10.625 9.1875,0 0,10.625 12.0625,0 0,-10.625 9.21875,0 0,10.625 12.03125,0 0,-10.625 9.21875,0 0,10.625 12.0625,0 0,-10.625 9.1875,0 0,10.625 12.0625,0 0,-10.625 9.21875,0 0,10.625 23.73952,-0.002 0,-26.39876 -10.625,0 0,-28.6875 10.625,0 0,-12.22624 z m 100.96998,21.25 24.8125,0 0,5.3125 -24.8125,0 z m 175.41833,0 24.78125,0 0,5.3125 -24.78125,0 z"
         style="opacity:0.33000004;color:#000000;fill:#000000;fill-opacity:1;fill-rule:nonzero;stroke:none;stroke-width:3.00000024;marker:none;visibility:visible;display:inline;overflow:visible;enable-background:accumulate" />
      <path
         sodipodi:nodetypes="ccccc"
         inkscape:connector-curvature="0"
         id="rect3015"
         d="m 358.07581,338.41186 39.13937,-5.34102 0,13.8437 -39.13937,-4.95937 z"
         style="opacity:0.33000004;color:#000000;fill:#000000;fill-opacity:1;fill-rule:nonzero;stroke:none;stroke-width:3.00000024;marker:none;visibility:visible;display:inline;overflow:visible;enable-background:accumulate" />
      <path
         id="path3026"
         d="M 273 330.40625 L 273 333.4375 L 273 346.90625 L 273 349.96875 L 331.46875 341.96875 L 331.46875 338.40625 L 273 330.40625 z "
         style="opacity:0.33000004;color:#000000;fill:#000000;fill-opacity:1;fill-rule:nonzero;stroke:none;stroke-width:3.00000024;marker:none;visibility:visible;display:inline;overflow:visible;enable-background:accumulate" />
    </g>
  </g>
</svg>
